<svg xmlns="http://www.w3.org/2000/svg" xmlns:xlink="http://www.w3.org/1999/xlink" contentStyleType="text/css" height="555px" preserveAspectRatio="none" style="width:481px;height:555px;background:#FFFFFF;" version="1.1" viewBox="0 0 481 555" width="481px" zoomAndPan="magnify"><defs/><g><line style="stroke:#181818;stroke-width:0.5;stroke-dasharray:5.0,5.0;" x1="24" x2="24" y1="81.2969" y2="474.0234"/><rect fill="#FFFFFF" height="350.5938" style="stroke:#181818;stroke-width:1.0;" width="10" x="19" y="123.4297"/><rect fill="#FFFFFF" height="221.0625" style="stroke:#181818;stroke-width:1.0;" width="10" x="24" y="252.9609"/><rect fill="#FFFFFF" height="18" style="stroke:#181818;stroke-width:1.0;" width="10" x="29" y="456.0234"/><line style="stroke:#181818;stroke-width:0.5;stroke-dasharray:5.0,5.0;" x1="253" x2="253" y1="81.2969" y2="474.0234"/><rect fill="#FFFFFF" height="350.5938" style="stroke:#181818;stroke-width:1.0;" width="10" x="248" y="123.4297"/><rect fill="#FFFFFF" height="119.5313" style="stroke:#181818;stroke-width:1.0;" width="10" x="253" y="354.4922"/><text fill="#000000" font-family="sans-serif" font-size="14" lengthAdjust="spacing" textLength="32" x="5" y="77.9951">Alice</text><ellipse cx="24" cy="13.5" fill="#E2E2F0" rx="8" ry="8" style="stroke:#181818;stroke-width:0.5;"/><path d="M24,21.5 L24,48.5 M11,29.5 L37,29.5 M24,48.5 L11,63.5 M24,48.5 L37,63.5 " fill="none" style="stroke:#181818;stroke-width:0.5;"/><text fill="#000000" font-family="sans-serif" font-size="14" lengthAdjust="spacing" textLength="28" x="236" y="77.9951">Bob</text><ellipse cx="253" cy="13.5" fill="#E2E2F0" rx="8" ry="8" style="stroke:#181818;stroke-width:0.5;"/><path d="M253,21.5 L253,48.5 M240,29.5 L266,29.5 M253,48.5 L240,63.5 M253,48.5 L266,63.5 " fill="none" style="stroke:#181818;stroke-width:0.5;"/><text fill="#000000" font-family="sans-serif" font-size="14" lengthAdjust="spacing" textLength="32" x="5" y="547.0186">Alice</text><ellipse cx="24" cy="482.5234" fill="#E2E2F0" rx="8" ry="8" style="stroke:#181818;stroke-width:0.5;"/><path d="M24,490.5234 L24,517.5234 M11,498.5234 L37,498.5234 M24,517.5234 L11,532.5234 M24,517.5234 L37,532.5234 " fill="none" style="stroke:#181818;stroke-width:0.5;"/><text fill="#000000" font-family="sans-serif" font-size="14" lengthAdjust="spacing" textLength="28" x="236" y="547.0186">Bob</text><ellipse cx="253" cy="482.5234" fill="#E2E2F0" rx="8" ry="8" style="stroke:#181818;stroke-width:0.5;"/><path d="M253,490.5234 L253,517.5234 M240,498.5234 L266,498.5234 M253,517.5234 L240,532.5234 M253,517.5234 L266,532.5234 " fill="none" style="stroke:#181818;stroke-width:0.5;"/><line style="stroke:#181818;stroke-width:1.0;" x1="24" x2="71" y1="110.4297" y2="110.4297"/><line style="stroke:#181818;stroke-width:1.0;" x1="71" x2="71" y1="110.4297" y2="123.4297"/><line style="stroke:#181818;stroke-width:1.0;" x1="30" x2="71" y1="123.4297" y2="123.4297"/><polygon fill="#181818" points="40,119.4297,30,123.4297,40,127.4297,36,123.4297" style="stroke:#181818;stroke-width:1.0;"/><text fill="#000000" font-family="sans-serif" font-size="13" lengthAdjust="spacing" textLength="188" x="36" y="105.3638">Generates long-term key pair</text><line style="stroke:#181818;stroke-width:1.0;" x1="253" x2="300" y1="110.4297" y2="110.4297"/><line style="stroke:#181818;stroke-width:1.0;" x1="300" x2="300" y1="110.4297" y2="123.4297"/><line style="stroke:#181818;stroke-width:1.0;" x1="259" x2="300" y1="123.4297" y2="123.4297"/><polygon fill="#181818" points="269,119.4297,259,123.4297,269,127.4297,265,123.4297" style="stroke:#181818;stroke-width:1.0;"/><text fill="#000000" font-family="sans-serif" font-size="13" lengthAdjust="spacing" textLength="188" x="265" y="105.3638">Generates long-term key pair</text><polygon fill="#181818" points="40,148.5625,30,152.5625,40,156.5625,36,152.5625" style="stroke:#181818;stroke-width:1.0;"/><polygon fill="#181818" points="236,148.5625,246,152.5625,236,156.5625,240,152.5625" style="stroke:#181818;stroke-width:1.0;"/><line style="stroke:#181818;stroke-width:1.0;stroke-dasharray:2.0,2.0;" x1="34" x2="242" y1="152.5625" y2="152.5625"/><text fill="#000000" font-family="sans-serif" font-size="13" lengthAdjust="spacing" textLength="144" x="46" y="147.4966">Public keys exchanged</text><rect fill="#EEEEEE" height="3" style="stroke:#EEEEEE;stroke-width:1.0;" width="469" x="5" y="181.1289"/><line style="stroke:#000000;stroke-width:1.0;" x1="5" x2="474" y1="181.1289" y2="181.1289"/><line style="stroke:#000000;stroke-width:1.0;" x1="5" x2="474" y1="184.1289" y2="184.1289"/><rect fill="#EEEEEE" height="23.1328" style="stroke:#000000;stroke-width:2.0;" width="122" x="178.5" y="170.5625"/><text fill="#000000" font-family="sans-serif" font-size="13" font-weight="bold" lengthAdjust="spacing" textLength="103" x="184.5" y="186.6294">Key Exchange</text><line style="stroke:#181818;stroke-width:1.0;" x1="29" x2="76" y1="239.9609" y2="239.9609"/><line style="stroke:#181818;stroke-width:1.0;" x1="76" x2="76" y1="239.9609" y2="252.9609"/><line style="stroke:#181818;stroke-width:1.0;" x1="35" x2="76" y1="252.9609" y2="252.9609"/><polygon fill="#181818" points="45,248.9609,35,252.9609,45,256.9609,41,252.9609" style="stroke:#181818;stroke-width:1.0;"/><text fill="#000000" font-family="sans-serif" font-size="13" lengthAdjust="spacing" textLength="151" x="41" y="219.7622">Initiate a key exchange,</text><text fill="#000000" font-family="sans-serif" font-size="13" lengthAdjust="spacing" textLength="200" x="41" y="234.895">generating ephemeral key pair.</text><polygon fill="#181818" points="236,278.0938,246,282.0938,236,286.0938,240,282.0938" style="stroke:#181818;stroke-width:1.0;"/><line style="stroke:#181818;stroke-width:1.0;" x1="34" x2="242" y1="282.0938" y2="282.0938"/><text fill="#000000" font-family="sans-serif" font-size="13" lengthAdjust="spacing" textLength="33" x="41" y="277.0278">Send</text><text fill="#000000" font-family="monospace" font-size="13" lengthAdjust="spacing" textLength="56" x="78" y="277.0278">packet1</text><line style="stroke:#181818;stroke-width:1.0;" x1="258" x2="305" y1="341.4922" y2="341.4922"/><line style="stroke:#181818;stroke-width:1.0;" x1="305" x2="305" y1="341.4922" y2="354.4922"/><line style="stroke:#181818;stroke-width:1.0;" x1="264" x2="305" y1="354.4922" y2="354.4922"/><polygon fill="#181818" points="274,350.4922,264,354.4922,274,358.4922,270,354.4922" style="stroke:#181818;stroke-width:1.0;"/><text fill="#000000" font-family="sans-serif" font-size="13" lengthAdjust="spacing" textLength="65" x="270" y="306.1606">Processes</text><text fill="#000000" font-family="monospace" font-size="13" lengthAdjust="spacing" textLength="56" x="339" y="306.1606">packet1</text><text fill="#000000" font-family="sans-serif" font-size="13" lengthAdjust="spacing" textLength="68" x="399" y="306.1606">from Alice,</text><text fill="#000000" font-family="sans-serif" font-size="13" lengthAdjust="spacing" textLength="186" x="270" y="321.2935">and computes its copy of the</text><text fill="#000000" font-family="sans-serif" font-size="13" lengthAdjust="spacing" textLength="81" x="270" y="336.4263">session keys</text><polygon fill="#181818" points="45,379.625,35,383.625,45,387.625,41,383.625" style="stroke:#181818;stroke-width:1.0;"/><line style="stroke:#181818;stroke-width:1.0;" x1="39" x2="252" y1="383.625" y2="383.625"/><text fill="#000000" font-family="sans-serif" font-size="13" lengthAdjust="spacing" textLength="33" x="51" y="378.5591">Send</text><text fill="#000000" font-family="monospace" font-size="13" lengthAdjust="spacing" textLength="56" x="88" y="378.5591">packet2</text><line style="stroke:#181818;stroke-width:1.0;" x1="34" x2="81" y1="443.0234" y2="443.0234"/><line style="stroke:#181818;stroke-width:1.0;" x1="81" x2="81" y1="443.0234" y2="456.0234"/><line style="stroke:#181818;stroke-width:1.0;" x1="40" x2="81" y1="456.0234" y2="456.0234"/><polygon fill="#181818" points="50,452.0234,40,456.0234,50,460.0234,46,456.0234" style="stroke:#181818;stroke-width:1.0;"/><text fill="#000000" font-family="sans-serif" font-size="13" lengthAdjust="spacing" textLength="65" x="46" y="407.6919">Processes</text><text fill="#000000" font-family="monospace" font-size="13" lengthAdjust="spacing" textLength="56" x="115" y="407.6919">packet2</text><text fill="#000000" font-family="sans-serif" font-size="13" lengthAdjust="spacing" textLength="63" x="175" y="407.6919">from Bob,</text><text fill="#000000" font-family="sans-serif" font-size="13" lengthAdjust="spacing" textLength="186" x="46" y="422.8247">and computes its copy of the</text><text fill="#000000" font-family="sans-serif" font-size="13" lengthAdjust="spacing" textLength="81" x="46" y="437.9575">session keys</text><!--SRC=[dP0_Ry8m4CNtV8fhXavD9HYhfb8hLHLYGUhASfWZiOXzbksWmgVdR1BAdwNgOllEVkz-pm_EOsCG8l41ek-fG1NPmtkdrNZ-u5MHQwZUJXSly4MMF4OAqB5jgaZUm9Rsu53x9DCxkHnS7fD3qihsL-NlpDTgL2xwbNJIum3qergq3QsBkeQvo3-71jJr7UpCwgYJA-P9e_PfAKk6qRO1SYqPAReppVDjaBDlnlackuQoTAYs52TbMLocN7XM58Aal7W16y_cv2MpKUIAZUlJN-WOf71xu0t4bfPMf46ppMcllsKOCsIxefWAnMtuUvBfI29E_-J8taS0]--></g></svg>