<svg xmlns="http://www.w3.org/2000/svg" xmlns:xlink="http://www.w3.org/1999/xlink" contentStyleType="text/css" height="598px" preserveAspectRatio="none" style="width:481px;height:598px;background:#FFFFFF;" version="1.1" viewBox="0 0 481 598" width="481px" zoomAndPan="magnify"><defs/><g><line style="stroke:#181818;stroke-width:0.5;stroke-dasharray:5.0,5.0;" x1="24" x2="24" y1="81.2969" y2="517.1563"/><rect fill="#FFFFFF" height="350.5938" style="stroke:#181818;stroke-width:1.0;" width="10" x="19" y="166.5625"/><rect fill="#FFFFFF" height="221.0625" style="stroke:#181818;stroke-width:1.0;" width="10" x="24" y="296.0938"/><rect fill="#FFFFFF" height="18" style="stroke:#181818;stroke-width:1.0;" width="10" x="29" y="499.1563"/><line style="stroke:#181818;stroke-width:0.5;stroke-dasharray:5.0,5.0;" x1="253" x2="253" y1="81.2969" y2="517.1563"/><rect fill="#FFFFFF" height="350.5938" style="stroke:#181818;stroke-width:1.0;" width="10" x="248" y="166.5625"/><rect fill="#FFFFFF" height="119.5313" style="stroke:#181818;stroke-width:1.0;" width="10" x="253" y="397.625"/><text fill="#000000" font-family="sans-serif" font-size="14" lengthAdjust="spacing" textLength="32" x="5" y="77.9951">Alice</text><ellipse cx="24" cy="13.5" fill="#E2E2F0" rx="8" ry="8" style="stroke:#181818;stroke-width:0.5;"/><path d="M24,21.5 L24,48.5 M11,29.5 L37,29.5 M24,48.5 L11,63.5 M24,48.5 L37,63.5 " fill="none" style="stroke:#181818;stroke-width:0.5;"/><text fill="#000000" font-family="sans-serif" font-size="14" lengthAdjust="spacing" textLength="28" x="236" y="77.9951">Bob</text><ellipse cx="253" cy="13.5" fill="#E2E2F0" rx="8" ry="8" style="stroke:#181818;stroke-width:0.5;"/><path d="M253,21.5 L253,48.5 M240,29.5 L266,29.5 M253,48.5 L240,63.5 M253,48.5 L266,63.5 " fill="none" style="stroke:#181818;stroke-width:0.5;"/><text fill="#000000" font-family="sans-serif" font-size="14" lengthAdjust="spacing" textLength="32" x="5" y="590.1514">Alice</text><ellipse cx="24" cy="525.6563" fill="#E2E2F0" rx="8" ry="8" style="stroke:#181818;stroke-width:0.5;"/><path d="M24,533.6563 L24,560.6563 M11,541.6563 L37,541.6563 M24,560.6563 L11,575.6563 M24,560.6563 L37,575.6563 " fill="none" style="stroke:#181818;stroke-width:0.5;"/><text fill="#000000" font-family="sans-serif" font-size="14" lengthAdjust="spacing" textLength="28" x="236" y="590.1514">Bob</text><ellipse cx="253" cy="525.6563" fill="#E2E2F0" rx="8" ry="8" style="stroke:#181818;stroke-width:0.5;"/><path d="M253,533.6563 L253,560.6563 M240,541.6563 L266,541.6563 M253,560.6563 L240,575.6563 M253,560.6563 L266,575.6563 " fill="none" style="stroke:#181818;stroke-width:0.5;"/><rect fill="#EEEEEE" height="3" style="stroke:#EEEEEE;stroke-width:1.0;" width="469" x="5" y="109.8633"/><line style="stroke:#000000;stroke-width:1.0;" x1="5" x2="474" y1="109.8633" y2="109.8633"/><line style="stroke:#000000;stroke-width:1.0;" x1="5" x2="474" y1="112.8633" y2="112.8633"/><rect fill="#EEEEEE" height="23.1328" style="stroke:#000000;stroke-width:2.0;" width="218" x="130.5" y="99.2969"/><text fill="#000000" font-family="sans-serif" font-size="13" font-weight="bold" lengthAdjust="spacing" textLength="199" x="136.5" y="115.3638">Establish trust relationship</text><line style="stroke:#181818;stroke-width:1.0;" x1="24" x2="71" y1="153.5625" y2="153.5625"/><line style="stroke:#181818;stroke-width:1.0;" x1="71" x2="71" y1="153.5625" y2="166.5625"/><line style="stroke:#181818;stroke-width:1.0;" x1="30" x2="71" y1="166.5625" y2="166.5625"/><polygon fill="#181818" points="40,162.5625,30,166.5625,40,170.5625,36,166.5625" style="stroke:#181818;stroke-width:1.0;"/><text fill="#000000" font-family="sans-serif" font-size="13" lengthAdjust="spacing" textLength="188" x="36" y="148.4966">Generates long-term key pair</text><line style="stroke:#181818;stroke-width:1.0;" x1="253" x2="300" y1="153.5625" y2="153.5625"/><line style="stroke:#181818;stroke-width:1.0;" x1="300" x2="300" y1="153.5625" y2="166.5625"/><line style="stroke:#181818;stroke-width:1.0;" x1="259" x2="300" y1="166.5625" y2="166.5625"/><polygon fill="#181818" points="269,162.5625,259,166.5625,269,170.5625,265,166.5625" style="stroke:#181818;stroke-width:1.0;"/><text fill="#000000" font-family="sans-serif" font-size="13" lengthAdjust="spacing" textLength="188" x="265" y="148.4966">Generates long-term key pair</text><polygon fill="#181818" points="40,191.6953,30,195.6953,40,199.6953,36,195.6953" style="stroke:#181818;stroke-width:1.0;"/><polygon fill="#181818" points="236,191.6953,246,195.6953,236,199.6953,240,195.6953" style="stroke:#181818;stroke-width:1.0;"/><line style="stroke:#181818;stroke-width:1.0;stroke-dasharray:2.0,2.0;" x1="34" x2="242" y1="195.6953" y2="195.6953"/><text fill="#000000" font-family="sans-serif" font-size="13" lengthAdjust="spacing" textLength="144" x="46" y="190.6294">Public keys exchanged</text><rect fill="#EEEEEE" height="3" style="stroke:#EEEEEE;stroke-width:1.0;" width="469" x="5" y="224.2617"/><line style="stroke:#000000;stroke-width:1.0;" x1="5" x2="474" y1="224.2617" y2="224.2617"/><line style="stroke:#000000;stroke-width:1.0;" x1="5" x2="474" y1="227.2617" y2="227.2617"/><rect fill="#EEEEEE" height="23.1328" style="stroke:#000000;stroke-width:2.0;" width="416" x="31.5" y="213.6953"/><text fill="#000000" font-family="sans-serif" font-size="13" font-weight="bold" lengthAdjust="spacing" textLength="397" x="37.5" y="229.7622">Establish session keys for encrypted communications</text><line style="stroke:#181818;stroke-width:1.0;" x1="29" x2="76" y1="283.0938" y2="283.0938"/><line style="stroke:#181818;stroke-width:1.0;" x1="76" x2="76" y1="283.0938" y2="296.0938"/><line style="stroke:#181818;stroke-width:1.0;" x1="35" x2="76" y1="296.0938" y2="296.0938"/><polygon fill="#181818" points="45,292.0938,35,296.0938,45,300.0938,41,296.0938" style="stroke:#181818;stroke-width:1.0;"/><text fill="#000000" font-family="sans-serif" font-size="13" lengthAdjust="spacing" textLength="151" x="41" y="262.895">Initiate a key exchange,</text><text fill="#000000" font-family="sans-serif" font-size="13" lengthAdjust="spacing" textLength="200" x="41" y="278.0278">generating ephemeral key pair.</text><polygon fill="#181818" points="236,321.2266,246,325.2266,236,329.2266,240,325.2266" style="stroke:#181818;stroke-width:1.0;"/><line style="stroke:#181818;stroke-width:1.0;" x1="34" x2="242" y1="325.2266" y2="325.2266"/><text fill="#000000" font-family="sans-serif" font-size="13" lengthAdjust="spacing" textLength="33" x="41" y="320.1606">Send</text><text fill="#000000" font-family="monospace" font-size="13" lengthAdjust="spacing" textLength="56" x="78" y="320.1606">packet1</text><line style="stroke:#181818;stroke-width:1.0;" x1="258" x2="305" y1="384.625" y2="384.625"/><line style="stroke:#181818;stroke-width:1.0;" x1="305" x2="305" y1="384.625" y2="397.625"/><line style="stroke:#181818;stroke-width:1.0;" x1="264" x2="305" y1="397.625" y2="397.625"/><polygon fill="#181818" points="274,393.625,264,397.625,274,401.625,270,397.625" style="stroke:#181818;stroke-width:1.0;"/><text fill="#000000" font-family="sans-serif" font-size="13" lengthAdjust="spacing" textLength="65" x="270" y="349.2935">Processes</text><text fill="#000000" font-family="monospace" font-size="13" lengthAdjust="spacing" textLength="56" x="339" y="349.2935">packet1</text><text fill="#000000" font-family="sans-serif" font-size="13" lengthAdjust="spacing" textLength="68" x="399" y="349.2935">from Alice,</text><text fill="#000000" font-family="sans-serif" font-size="13" lengthAdjust="spacing" textLength="186" x="270" y="364.4263">and computes its copy of the</text><text fill="#000000" font-family="sans-serif" font-size="13" lengthAdjust="spacing" textLength="81" x="270" y="379.5591">session keys</text><polygon fill="#181818" points="45,422.7578,35,426.7578,45,430.7578,41,426.7578" style="stroke:#181818;stroke-width:1.0;"/><line style="stroke:#181818;stroke-width:1.0;" x1="39" x2="252" y1="426.7578" y2="426.7578"/><text fill="#000000" font-family="sans-serif" font-size="13" lengthAdjust="spacing" textLength="33" x="51" y="421.6919">Send</text><text fill="#000000" font-family="monospace" font-size="13" lengthAdjust="spacing" textLength="56" x="88" y="421.6919">packet2</text><line style="stroke:#181818;stroke-width:1.0;" x1="34" x2="81" y1="486.1563" y2="486.1563"/><line style="stroke:#181818;stroke-width:1.0;" x1="81" x2="81" y1="486.1563" y2="499.1563"/><line style="stroke:#181818;stroke-width:1.0;" x1="40" x2="81" y1="499.1563" y2="499.1563"/><polygon fill="#181818" points="50,495.1563,40,499.1563,50,503.1563,46,499.1563" style="stroke:#181818;stroke-width:1.0;"/><text fill="#000000" font-family="sans-serif" font-size="13" lengthAdjust="spacing" textLength="65" x="46" y="450.8247">Processes</text><text fill="#000000" font-family="monospace" font-size="13" lengthAdjust="spacing" textLength="56" x="115" y="450.8247">packet2</text><text fill="#000000" font-family="sans-serif" font-size="13" lengthAdjust="spacing" textLength="63" x="175" y="450.8247">from Bob,</text><text fill="#000000" font-family="sans-serif" font-size="13" lengthAdjust="spacing" textLength="186" x="46" y="465.9575">and computes its copy of the</text><text fill="#000000" font-family="sans-serif" font-size="13" lengthAdjust="spacing" textLength="81" x="46" y="481.0903">session keys</text><!--SRC=[dP2zJiGm48JxFCMIWeeWSIKYI20XH7SIxJK-PvDOvp_P6qHuUjPESaeE2aJZsChEp3TxvOFeZ012zmKK1Yo491VWIIkvt9_TiQXhU8aaZbh5Fir5We1Qa78szif3NHTP0jNZfBs7LxGO1644xMnN4GO39np12nMIi_hWdtFGTGf9MlxyLPcmfio7Qb7k1oQKQJW2VifUs0wRBNp469bwcccv7bePHa_OW7J635R9gTPldTwi8fN2HGPQ8cuEV6HcPJj0twFXXpv3trxsFVjcwdUq3PIb5_A4T5UMnNeP- -0a8_CoLXFG1cScByuMDhFx8QrCKUI77y6rG3qUxBhmTdjppDnjGx5ZYiloFqbs2max_PCZUty3]--></g></svg>