<svg xmlns="http://www.w3.org/2000/svg" xmlns:xlink="http://www.w3.org/1999/xlink" contentStyleType="text/css" height="510px" preserveAspectRatio="none" style="width:473px;height:510px;background:#FFFFFF;" version="1.1" viewBox="0 0 473 510" width="473px" zoomAndPan="magnify"><defs/><g><rect fill="#FFFFFF" height="256.9297" style="stroke:#181818;stroke-width:1.0;" width="10" x="19" y="163.5625"/><rect fill="#FFFFFF" height="14" style="stroke:#181818;stroke-width:1.0;" width="10" x="24" y="406.4922"/><rect fill="#FFFFFF" height="142.5313" style="stroke:#181818;stroke-width:1.0;" width="10" x="248" y="277.9609"/><rect fill="#FFFFFF" height="100.3984" style="stroke:#181818;stroke-width:1.0;" width="10" x="253" y="320.0938"/><line style="stroke:#181818;stroke-width:0.5;stroke-dasharray:5.0,5.0;" x1="24" x2="24" y1="81.2969" y2="429.4922"/><line style="stroke:#181818;stroke-width:0.5;stroke-dasharray:5.0,5.0;" x1="253" x2="253" y1="81.2969" y2="429.4922"/><text fill="#000000" font-family="sans-serif" font-size="14" lengthAdjust="spacing" textLength="32" x="5" y="77.9951">Alice</text><ellipse cx="24" cy="13.5" fill="#E2E2F0" rx="8" ry="8" style="stroke:#181818;stroke-width:0.5;"/><path d="M24,21.5 L24,48.5 M11,29.5 L37,29.5 M24,48.5 L11,63.5 M24,48.5 L37,63.5 " fill="none" style="stroke:#181818;stroke-width:0.5;"/><text fill="#000000" font-family="sans-serif" font-size="14" lengthAdjust="spacing" textLength="32" x="5" y="441.4873">Alice</text><ellipse cx="24" cy="453.2891" fill="#E2E2F0" rx="8" ry="8" style="stroke:#181818;stroke-width:0.5;"/><path d="M24,461.2891 L24,488.2891 M11,469.2891 L37,469.2891 M24,488.2891 L11,503.2891 M24,488.2891 L37,503.2891 " fill="none" style="stroke:#181818;stroke-width:0.5;"/><text fill="#000000" font-family="sans-serif" font-size="14" lengthAdjust="spacing" textLength="28" x="236" y="77.9951">Bob</text><ellipse cx="253" cy="13.5" fill="#E2E2F0" rx="8" ry="8" style="stroke:#181818;stroke-width:0.5;"/><path d="M253,21.5 L253,48.5 M240,29.5 L266,29.5 M253,48.5 L240,63.5 M253,48.5 L266,63.5 " fill="none" style="stroke:#181818;stroke-width:0.5;"/><text fill="#000000" font-family="sans-serif" font-size="14" lengthAdjust="spacing" textLength="28" x="236" y="441.4873">Bob</text><ellipse cx="253" cy="453.2891" fill="#E2E2F0" rx="8" ry="8" style="stroke:#181818;stroke-width:0.5;"/><path d="M253,461.2891 L253,488.2891 M240,469.2891 L266,469.2891 M253,488.2891 L240,503.2891 M253,488.2891 L266,503.2891 " fill="none" style="stroke:#181818;stroke-width:0.5;"/><rect fill="#FFFFFF" height="256.9297" style="stroke:#181818;stroke-width:1.0;" width="10" x="19" y="163.5625"/><rect fill="#FFFFFF" height="14" style="stroke:#181818;stroke-width:1.0;" width="10" x="24" y="406.4922"/><rect fill="#FFFFFF" height="142.5313" style="stroke:#181818;stroke-width:1.0;" width="10" x="248" y="277.9609"/><rect fill="#FFFFFF" height="100.3984" style="stroke:#181818;stroke-width:1.0;" width="10" x="253" y="320.0938"/><rect fill="#EEEEEE" height="3" style="stroke:#EEEEEE;stroke-width:1.0;" width="466" x="0" y="111.8633"/><line style="stroke:#000000;stroke-width:1.0;" x1="0" x2="466" y1="111.8633" y2="111.8633"/><line style="stroke:#000000;stroke-width:1.0;" x1="0" x2="466" y1="114.8633" y2="114.8633"/><rect fill="#EEEEEE" height="23.1328" style="stroke:#000000;stroke-width:2.0;" width="218" x="124" y="101.2969"/><text fill="#000000" font-family="sans-serif" font-size="13" font-weight="bold" lengthAdjust="spacing" textLength="199" x="130" y="117.3638">Establish trust relationship</text><line style="stroke:#181818;stroke-width:1.0;" x1="24" x2="71" y1="150.5625" y2="150.5625"/><line style="stroke:#181818;stroke-width:1.0;" x1="71" x2="71" y1="150.5625" y2="163.5625"/><line style="stroke:#181818;stroke-width:1.0;" x1="30" x2="71" y1="163.5625" y2="163.5625"/><polygon fill="#181818" points="40,159.5625,30,163.5625,40,167.5625,36,163.5625" style="stroke:#181818;stroke-width:1.0;"/><text fill="#000000" font-family="sans-serif" font-size="13" lengthAdjust="spacing" textLength="188" x="36" y="145.4966">Generates long-term key pair</text><polygon fill="#181818" points="241,193.6953,251,197.6953,241,201.6953,245,197.6953" style="stroke:#181818;stroke-width:1.0;"/><line style="stroke:#181818;stroke-width:1.0;stroke-dasharray:2.0,2.0;" x1="29" x2="247" y1="197.6953" y2="197.6953"/><text fill="#000000" font-family="sans-serif" font-size="13" lengthAdjust="spacing" textLength="111" x="36" y="192.6294">Public key shared</text><rect fill="#EEEEEE" height="3" style="stroke:#EEEEEE;stroke-width:1.0;" width="466" x="0" y="226.2617"/><line style="stroke:#000000;stroke-width:1.0;" x1="0" x2="466" y1="226.2617" y2="226.2617"/><line style="stroke:#000000;stroke-width:1.0;" x1="0" x2="466" y1="229.2617" y2="229.2617"/><rect fill="#EEEEEE" height="23.1328" style="stroke:#000000;stroke-width:2.0;" width="416" x="25" y="215.6953"/><text fill="#000000" font-family="sans-serif" font-size="13" font-weight="bold" lengthAdjust="spacing" textLength="397" x="31" y="231.7622">Establish session keys for encrypted communications</text><line style="stroke:#181818;stroke-width:1.0;" x1="253" x2="300" y1="264.9609" y2="264.9609"/><line style="stroke:#181818;stroke-width:1.0;" x1="300" x2="300" y1="264.9609" y2="277.9609"/><line style="stroke:#181818;stroke-width:1.0;" x1="259" x2="300" y1="277.9609" y2="277.9609"/><polygon fill="#181818" points="269,273.9609,259,277.9609,269,281.9609,265,277.9609" style="stroke:#181818;stroke-width:1.0;"/><text fill="#000000" font-family="sans-serif" font-size="13" lengthAdjust="spacing" textLength="194" x="265" y="259.895">Generates ephemeral key pair</text><line style="stroke:#181818;stroke-width:1.0;" x1="258" x2="305" y1="307.0938" y2="307.0938"/><line style="stroke:#181818;stroke-width:1.0;" x1="305" x2="305" y1="307.0938" y2="320.0938"/><line style="stroke:#181818;stroke-width:1.0;" x1="264" x2="305" y1="320.0938" y2="320.0938"/><polygon fill="#181818" points="274,316.0938,264,320.0938,274,324.0938,270,320.0938" style="stroke:#181818;stroke-width:1.0;"/><text fill="#000000" font-family="sans-serif" font-size="13" lengthAdjust="spacing" textLength="152" x="270" y="302.0278">Generates session keys</text><polygon fill="#181818" points="40,350.2266,30,354.2266,40,358.2266,36,354.2266" style="stroke:#181818;stroke-width:1.0;"/><line style="stroke:#181818;stroke-width:1.0;" x1="34" x2="252" y1="354.2266" y2="354.2266"/><text fill="#000000" font-family="sans-serif" font-size="13" lengthAdjust="spacing" textLength="33" x="46" y="349.1606">Send</text><text fill="#000000" font-family="monospace" font-size="13" lengthAdjust="spacing" textLength="56" x="83" y="349.1606">packet1</text><line style="stroke:#181818;stroke-width:1.0;" x1="29" x2="76" y1="393.4922" y2="393.4922"/><line style="stroke:#181818;stroke-width:1.0;" x1="76" x2="76" y1="393.4922" y2="406.4922"/><line style="stroke:#181818;stroke-width:1.0;" x1="35" x2="76" y1="406.4922" y2="406.4922"/><polygon fill="#181818" points="45,402.4922,35,406.4922,45,410.4922,41,406.4922" style="stroke:#181818;stroke-width:1.0;"/><text fill="#000000" font-family="sans-serif" font-size="13" lengthAdjust="spacing" textLength="50" x="41" y="373.2935">Process</text><text fill="#000000" font-family="monospace" font-size="13" lengthAdjust="spacing" textLength="56" x="95" y="373.2935">packet1</text><text fill="#000000" font-family="sans-serif" font-size="13" lengthAdjust="spacing" textLength="63" x="155" y="373.2935">from Bob,</text><text fill="#000000" font-family="sans-serif" font-size="13" lengthAdjust="spacing" textLength="195" x="41" y="388.4263">and compute the session keys</text><!--SRC=[TP0zQmCn38Rt-nNYvcRe6hX22wLhe6iMnQVK9lv2qXNoxoixLvhIwsQGtkTvPNHQ69vZS3HWVx-Kqp1Dy2gAfnZ4W_8Y2amHDPGiFbIOfg57OFTqo-xXZJ8nAWd4aZzsIfpWGbUe6BYHmwSDLz6QjR39zd1OJEJwjdXacd_xXKHCtEO2Psj8sV6rAitWIafB3kxMhDKo87npVofHzPJi7JSgjNktK_VYpVtrz7VACunZHNSXVHp7FtzpuEACTRy3PowfiHwE6NE_f2v6Lq__U3lh2m00]--></g></svg>