<svg xmlns="http://www.w3.org/2000/svg" xmlns:xlink="http://www.w3.org/1999/xlink" contentStyleType="text/css" height="394px" preserveAspectRatio="none" style="width:466px;height:394px;background:#FFFFFF;" version="1.1" viewBox="0 0 466 394" width="466px" zoomAndPan="magnify"><defs/><g><rect fill="#FFFFFF" height="184.6641" style="stroke:#181818;stroke-width:1.0;" width="10" x="19" y="120.4297"/><rect fill="#FFFFFF" height="14" style="stroke:#181818;stroke-width:1.0;" width="10" x="24" y="291.0938"/><rect fill="#FFFFFF" height="142.5313" style="stroke:#181818;stroke-width:1.0;" width="10" x="248" y="162.5625"/><rect fill="#FFFFFF" height="100.3984" style="stroke:#181818;stroke-width:1.0;" width="10" x="253" y="204.6953"/><line style="stroke:#181818;stroke-width:0.5;stroke-dasharray:5.0,5.0;" x1="24" x2="24" y1="81.2969" y2="314.0938"/><line style="stroke:#181818;stroke-width:0.5;stroke-dasharray:5.0,5.0;" x1="253" x2="253" y1="81.2969" y2="314.0938"/><text fill="#000000" font-family="sans-serif" font-size="14" lengthAdjust="spacing" textLength="32" x="5" y="77.9951">Alice</text><ellipse cx="24" cy="13.5" fill="#E2E2F0" rx="8" ry="8" style="stroke:#181818;stroke-width:0.5;"/><path d="M24,21.5 L24,48.5 M11,29.5 L37,29.5 M24,48.5 L11,63.5 M24,48.5 L37,63.5 " fill="none" style="stroke:#181818;stroke-width:0.5;"/><text fill="#000000" font-family="sans-serif" font-size="14" lengthAdjust="spacing" textLength="32" x="5" y="326.0889">Alice</text><ellipse cx="24" cy="337.8906" fill="#E2E2F0" rx="8" ry="8" style="stroke:#181818;stroke-width:0.5;"/><path d="M24,345.8906 L24,372.8906 M11,353.8906 L37,353.8906 M24,372.8906 L11,387.8906 M24,372.8906 L37,387.8906 " fill="none" style="stroke:#181818;stroke-width:0.5;"/><text fill="#000000" font-family="sans-serif" font-size="14" lengthAdjust="spacing" textLength="28" x="236" y="77.9951">Bob</text><ellipse cx="253" cy="13.5" fill="#E2E2F0" rx="8" ry="8" style="stroke:#181818;stroke-width:0.5;"/><path d="M253,21.5 L253,48.5 M240,29.5 L266,29.5 M253,48.5 L240,63.5 M253,48.5 L266,63.5 " fill="none" style="stroke:#181818;stroke-width:0.5;"/><text fill="#000000" font-family="sans-serif" font-size="14" lengthAdjust="spacing" textLength="28" x="236" y="326.0889">Bob</text><ellipse cx="253" cy="337.8906" fill="#E2E2F0" rx="8" ry="8" style="stroke:#181818;stroke-width:0.5;"/><path d="M253,345.8906 L253,372.8906 M240,353.8906 L266,353.8906 M253,372.8906 L240,387.8906 M253,372.8906 L266,387.8906 " fill="none" style="stroke:#181818;stroke-width:0.5;"/><rect fill="#FFFFFF" height="184.6641" style="stroke:#181818;stroke-width:1.0;" width="10" x="19" y="120.4297"/><rect fill="#FFFFFF" height="14" style="stroke:#181818;stroke-width:1.0;" width="10" x="24" y="291.0938"/><rect fill="#FFFFFF" height="142.5313" style="stroke:#181818;stroke-width:1.0;" width="10" x="248" y="162.5625"/><rect fill="#FFFFFF" height="100.3984" style="stroke:#181818;stroke-width:1.0;" width="10" x="253" y="204.6953"/><line style="stroke:#181818;stroke-width:1.0;" x1="24" x2="71" y1="107.4297" y2="107.4297"/><line style="stroke:#181818;stroke-width:1.0;" x1="71" x2="71" y1="107.4297" y2="120.4297"/><line style="stroke:#181818;stroke-width:1.0;" x1="30" x2="71" y1="120.4297" y2="120.4297"/><polygon fill="#181818" points="40,116.4297,30,120.4297,40,124.4297,36,120.4297" style="stroke:#181818;stroke-width:1.0;"/><text fill="#000000" font-family="sans-serif" font-size="13" lengthAdjust="spacing" textLength="188" x="36" y="102.3638">Generates long-term key pair</text><line style="stroke:#181818;stroke-width:1.0;" x1="253" x2="300" y1="149.5625" y2="149.5625"/><line style="stroke:#181818;stroke-width:1.0;" x1="300" x2="300" y1="149.5625" y2="162.5625"/><line style="stroke:#181818;stroke-width:1.0;" x1="259" x2="300" y1="162.5625" y2="162.5625"/><polygon fill="#181818" points="269,158.5625,259,162.5625,269,166.5625,265,162.5625" style="stroke:#181818;stroke-width:1.0;"/><text fill="#000000" font-family="sans-serif" font-size="13" lengthAdjust="spacing" textLength="194" x="265" y="144.4966">Generates ephemeral key pair</text><line style="stroke:#181818;stroke-width:1.0;" x1="258" x2="305" y1="191.6953" y2="191.6953"/><line style="stroke:#181818;stroke-width:1.0;" x1="305" x2="305" y1="191.6953" y2="204.6953"/><line style="stroke:#181818;stroke-width:1.0;" x1="264" x2="305" y1="204.6953" y2="204.6953"/><polygon fill="#181818" points="274,200.6953,264,204.6953,274,208.6953,270,204.6953" style="stroke:#181818;stroke-width:1.0;"/><text fill="#000000" font-family="sans-serif" font-size="13" lengthAdjust="spacing" textLength="152" x="270" y="186.6294">Generates session keys</text><polygon fill="#181818" points="40,234.8281,30,238.8281,40,242.8281,36,238.8281" style="stroke:#181818;stroke-width:1.0;"/><line style="stroke:#181818;stroke-width:1.0;" x1="34" x2="252" y1="238.8281" y2="238.8281"/><text fill="#000000" font-family="sans-serif" font-size="13" lengthAdjust="spacing" textLength="33" x="46" y="233.7622">Send</text><text fill="#000000" font-family="monospace" font-size="13" lengthAdjust="spacing" textLength="56" x="83" y="233.7622">packet1</text><line style="stroke:#181818;stroke-width:1.0;" x1="29" x2="76" y1="278.0938" y2="278.0938"/><line style="stroke:#181818;stroke-width:1.0;" x1="76" x2="76" y1="278.0938" y2="291.0938"/><line style="stroke:#181818;stroke-width:1.0;" x1="35" x2="76" y1="291.0938" y2="291.0938"/><polygon fill="#181818" points="45,287.0938,35,291.0938,45,295.0938,41,291.0938" style="stroke:#181818;stroke-width:1.0;"/><text fill="#000000" font-family="sans-serif" font-size="13" lengthAdjust="spacing" textLength="50" x="41" y="257.895">Process</text><text fill="#000000" font-family="monospace" font-size="13" lengthAdjust="spacing" textLength="56" x="95" y="257.895">packet1</text><text fill="#000000" font-family="sans-serif" font-size="13" lengthAdjust="spacing" textLength="63" x="155" y="257.895">from Bob,</text><text fill="#000000" font-family="sans-serif" font-size="13" lengthAdjust="spacing" textLength="195" x="41" y="273.0278">and compute the session keys</text><!--SRC=[TO-n3W8n243t-mhIsHjS7KnqSJLnTS6ANdFNqj2UYNylhJTSOfs0m7i0sim2XybPwh3cHxvrjOP-_stiu4I113Cbc3Wy-qpYOQGtH7HICFVIvc9Hlf0QrXp5WRpcKuCh6zjKefGSXyAavlnotuN27Oo9Q4VAMsD-7ZWBMtMjP-0Xx8jhSmsek6KVPxNdWVxihQuF]--></g></svg>