<svg xmlns="http://www.w3.org/2000/svg" xmlns:xlink="http://www.w3.org/1999/xlink" contentStyleType="text/css" height="691px" preserveAspectRatio="none" style="width:526px;height:691px;background:#FFFFFF;" version="1.1" viewBox="0 0 526 691" width="526px" zoomAndPan="magnify"><defs/><g><line style="stroke:#181818;stroke-width:0.5;stroke-dasharray:5.0,5.0;" x1="27" x2="27" y1="81.2969" y2="609.5547"/><rect fill="#FFFFFF" height="364.7266" style="stroke:#181818;stroke-width:1.0;" width="10" x="22" y="244.8281"/><rect fill="#FFFFFF" height="307.4609" style="stroke:#181818;stroke-width:1.0;" width="10" x="27" y="302.0938"/><rect fill="#FFFFFF" height="119.5313" style="stroke:#181818;stroke-width:1.0;" width="10" x="32" y="490.0234"/><line style="stroke:#181818;stroke-width:0.5;stroke-dasharray:5.0,5.0;" x1="275" x2="275" y1="81.2969" y2="609.5547"/><rect fill="#FFFFFF" height="364.7266" style="stroke:#181818;stroke-width:1.0;" width="10" x="270" y="244.8281"/><rect fill="#FFFFFF" height="221.0625" style="stroke:#181818;stroke-width:1.0;" width="10" x="275" y="388.4922"/><rect fill="#FFFFFF" height="18" style="stroke:#181818;stroke-width:1.0;" width="10" x="280" y="591.5547"/><text fill="#000000" font-family="sans-serif" font-size="14" lengthAdjust="spacing" textLength="32" x="8" y="77.9951">Alice</text><ellipse cx="27" cy="13.5" fill="#E2E2F0" rx="8" ry="8" style="stroke:#181818;stroke-width:0.5;"/><path d="M27,21.5 L27,48.5 M14,29.5 L40,29.5 M27,48.5 L14,63.5 M27,48.5 L40,63.5 " fill="none" style="stroke:#181818;stroke-width:0.5;"/><text fill="#000000" font-family="sans-serif" font-size="14" lengthAdjust="spacing" textLength="28" x="258" y="77.9951">Bob</text><ellipse cx="275" cy="13.5" fill="#E2E2F0" rx="8" ry="8" style="stroke:#181818;stroke-width:0.5;"/><path d="M275,21.5 L275,48.5 M262,29.5 L288,29.5 M275,48.5 L262,63.5 M275,48.5 L288,63.5 " fill="none" style="stroke:#181818;stroke-width:0.5;"/><text fill="#000000" font-family="sans-serif" font-size="14" lengthAdjust="spacing" textLength="32" x="8" y="682.5498">Alice</text><ellipse cx="27" cy="618.0547" fill="#E2E2F0" rx="8" ry="8" style="stroke:#181818;stroke-width:0.5;"/><path d="M27,626.0547 L27,653.0547 M14,634.0547 L40,634.0547 M27,653.0547 L14,668.0547 M27,653.0547 L40,668.0547 " fill="none" style="stroke:#181818;stroke-width:0.5;"/><text fill="#000000" font-family="sans-serif" font-size="14" lengthAdjust="spacing" textLength="28" x="258" y="682.5498">Bob</text><ellipse cx="275" cy="618.0547" fill="#E2E2F0" rx="8" ry="8" style="stroke:#181818;stroke-width:0.5;"/><path d="M275,626.0547 L275,653.0547 M262,634.0547 L288,634.0547 M275,653.0547 L262,668.0547 M275,653.0547 L288,668.0547 " fill="none" style="stroke:#181818;stroke-width:0.5;"/><rect fill="#EEEEEE" height="3" style="stroke:#EEEEEE;stroke-width:1.0;" width="514" x="5" y="109.8633"/><line style="stroke:#000000;stroke-width:1.0;" x1="5" x2="519" y1="109.8633" y2="109.8633"/><line style="stroke:#000000;stroke-width:1.0;" x1="5" x2="519" y1="112.8633" y2="112.8633"/><rect fill="#EEEEEE" height="23.1328" style="stroke:#000000;stroke-width:2.0;" width="218" x="153" y="99.2969"/><text fill="#000000" font-family="sans-serif" font-size="13" font-weight="bold" lengthAdjust="spacing" textLength="199" x="159" y="115.3638">Establish trust relationship</text><path d="M10,137.4297 L10,162.4297 L292,162.4297 L292,147.4297 L282,137.4297 L10,137.4297 " fill="#FEFFDD" style="stroke:#181818;stroke-width:0.5;"/><path d="M282,137.4297 L282,147.4297 L292,147.4297 L282,137.4297 " fill="#FEFFDD" style="stroke:#181818;stroke-width:0.5;"/><text fill="#000000" font-family="sans-serif" font-size="13" lengthAdjust="spacing" textLength="261" x="16" y="154.4966">There is no pre-existing trust relationship</text><rect fill="#EEEEEE" height="3" style="stroke:#EEEEEE;stroke-width:1.0;" width="514" x="5" y="188.1289"/><line style="stroke:#000000;stroke-width:1.0;" x1="5" x2="519" y1="188.1289" y2="188.1289"/><line style="stroke:#000000;stroke-width:1.0;" x1="5" x2="519" y1="191.1289" y2="191.1289"/><rect fill="#EEEEEE" height="23.1328" style="stroke:#000000;stroke-width:2.0;" width="416" x="54" y="177.5625"/><text fill="#000000" font-family="sans-serif" font-size="13" font-weight="bold" lengthAdjust="spacing" textLength="397" x="60" y="193.6294">Establish session keys for encrypted communications</text><line style="stroke:#181818;stroke-width:1.0;" x1="27" x2="74" y1="231.8281" y2="231.8281"/><line style="stroke:#181818;stroke-width:1.0;" x1="74" x2="74" y1="231.8281" y2="244.8281"/><line style="stroke:#181818;stroke-width:1.0;" x1="33" x2="74" y1="244.8281" y2="244.8281"/><polygon fill="#181818" points="43,240.8281,33,244.8281,43,248.8281,39,244.8281" style="stroke:#181818;stroke-width:1.0;"/><text fill="#000000" font-family="sans-serif" font-size="13" lengthAdjust="spacing" textLength="188" x="39" y="226.7622">Generates long-term key pair</text><line style="stroke:#181818;stroke-width:1.0;" x1="275" x2="322" y1="231.8281" y2="231.8281"/><line style="stroke:#181818;stroke-width:1.0;" x1="322" x2="322" y1="231.8281" y2="244.8281"/><line style="stroke:#181818;stroke-width:1.0;" x1="281" x2="322" y1="244.8281" y2="244.8281"/><polygon fill="#181818" points="291,240.8281,281,244.8281,291,248.8281,287,244.8281" style="stroke:#181818;stroke-width:1.0;"/><text fill="#000000" font-family="sans-serif" font-size="13" lengthAdjust="spacing" textLength="188" x="287" y="226.7622">Generates long-term key pair</text><line style="stroke:#181818;stroke-width:1.0;" x1="32" x2="79" y1="289.0938" y2="289.0938"/><line style="stroke:#181818;stroke-width:1.0;" x1="79" x2="79" y1="289.0938" y2="302.0938"/><line style="stroke:#181818;stroke-width:1.0;" x1="38" x2="79" y1="302.0938" y2="302.0938"/><polygon fill="#181818" points="48,298.0938,38,302.0938,48,306.0938,44,302.0938" style="stroke:#181818;stroke-width:1.0;"/><text fill="#000000" font-family="sans-serif" font-size="13" lengthAdjust="spacing" textLength="151" x="44" y="268.895">Initiate a key exchange,</text><text fill="#000000" font-family="sans-serif" font-size="13" lengthAdjust="spacing" textLength="219" x="44" y="284.0278">generating its ephemeral key pair.</text><polygon fill="#181818" points="258,327.2266,268,331.2266,258,335.2266,262,331.2266" style="stroke:#181818;stroke-width:1.0;"/><line style="stroke:#181818;stroke-width:1.0;" x1="37" x2="264" y1="331.2266" y2="331.2266"/><text fill="#000000" font-family="sans-serif" font-size="13" lengthAdjust="spacing" textLength="33" x="44" y="326.1606">Send</text><text fill="#000000" font-family="monospace" font-size="13" lengthAdjust="spacing" textLength="56" x="81" y="326.1606">packet1</text><line style="stroke:#181818;stroke-width:1.0;" x1="280" x2="327" y1="375.4922" y2="375.4922"/><line style="stroke:#181818;stroke-width:1.0;" x1="327" x2="327" y1="375.4922" y2="388.4922"/><line style="stroke:#181818;stroke-width:1.0;" x1="286" x2="327" y1="388.4922" y2="388.4922"/><polygon fill="#181818" points="296,384.4922,286,388.4922,296,392.4922,292,388.4922" style="stroke:#181818;stroke-width:1.0;"/><text fill="#000000" font-family="sans-serif" font-size="13" lengthAdjust="spacing" textLength="65" x="292" y="355.2935">Processes</text><text fill="#000000" font-family="monospace" font-size="13" lengthAdjust="spacing" textLength="56" x="361" y="355.2935">packet1</text><text fill="#000000" font-family="sans-serif" font-size="13" lengthAdjust="spacing" textLength="68" x="421" y="355.2935">from Alice,</text><text fill="#000000" font-family="sans-serif" font-size="13" lengthAdjust="spacing" textLength="215" x="292" y="370.4263">generating its ephemeral key pair</text><polygon fill="#181818" points="48,413.625,38,417.625,48,421.625,44,417.625" style="stroke:#181818;stroke-width:1.0;"/><line style="stroke:#181818;stroke-width:1.0;" x1="42" x2="274" y1="417.625" y2="417.625"/><text fill="#000000" font-family="sans-serif" font-size="13" lengthAdjust="spacing" textLength="33" x="54" y="412.5591">Send</text><text fill="#000000" font-family="monospace" font-size="13" lengthAdjust="spacing" textLength="56" x="91" y="412.5591">packet2</text><line style="stroke:#181818;stroke-width:1.0;" x1="37" x2="84" y1="477.0234" y2="477.0234"/><line style="stroke:#181818;stroke-width:1.0;" x1="84" x2="84" y1="477.0234" y2="490.0234"/><line style="stroke:#181818;stroke-width:1.0;" x1="43" x2="84" y1="490.0234" y2="490.0234"/><polygon fill="#181818" points="53,486.0234,43,490.0234,53,494.0234,49,490.0234" style="stroke:#181818;stroke-width:1.0;"/><text fill="#000000" font-family="sans-serif" font-size="13" lengthAdjust="spacing" textLength="65" x="49" y="441.6919">Processes</text><text fill="#000000" font-family="monospace" font-size="13" lengthAdjust="spacing" textLength="56" x="118" y="441.6919">packet2</text><text fill="#000000" font-family="sans-serif" font-size="13" lengthAdjust="spacing" textLength="63" x="178" y="441.6919">from Bob,</text><text fill="#000000" font-family="sans-serif" font-size="13" lengthAdjust="spacing" textLength="186" x="49" y="456.8247">and computes its copy of the</text><text fill="#000000" font-family="sans-serif" font-size="13" lengthAdjust="spacing" textLength="81" x="49" y="471.9575">session keys</text><polygon fill="#181818" points="263,515.1563,273,519.1563,263,523.1563,267,519.1563" style="stroke:#181818;stroke-width:1.0;"/><line style="stroke:#181818;stroke-width:1.0;" x1="42" x2="269" y1="519.1563" y2="519.1563"/><text fill="#000000" font-family="sans-serif" font-size="13" lengthAdjust="spacing" textLength="33" x="49" y="514.0903">Send</text><text fill="#000000" font-family="monospace" font-size="13" lengthAdjust="spacing" textLength="56" x="86" y="514.0903">packet3</text><line style="stroke:#181818;stroke-width:1.0;" x1="285" x2="332" y1="578.5547" y2="578.5547"/><line style="stroke:#181818;stroke-width:1.0;" x1="332" x2="332" y1="578.5547" y2="591.5547"/><line style="stroke:#181818;stroke-width:1.0;" x1="291" x2="332" y1="591.5547" y2="591.5547"/><polygon fill="#181818" points="301,587.5547,291,591.5547,301,595.5547,297,591.5547" style="stroke:#181818;stroke-width:1.0;"/><text fill="#000000" font-family="sans-serif" font-size="13" lengthAdjust="spacing" textLength="65" x="297" y="543.2231">Processes</text><text fill="#000000" font-family="monospace" font-size="13" lengthAdjust="spacing" textLength="56" x="366" y="543.2231">packet3</text><text fill="#000000" font-family="sans-serif" font-size="13" lengthAdjust="spacing" textLength="68" x="426" y="543.2231">from Alice,</text><text fill="#000000" font-family="sans-serif" font-size="13" lengthAdjust="spacing" textLength="186" x="297" y="558.356">and computes its copy of the</text><text fill="#000000" font-family="sans-serif" font-size="13" lengthAdjust="spacing" textLength="81" x="297" y="573.4888">session keys</text><!--SRC=[dP5FIyD04CNl-HHZ3fwiO7ihH50GyIReiPVjTfeCJMQMdQcqVdftqp-qKR1wIK9cvxtVUtiLegix1uRo2HRNM3Xl4k6X9N_uVfHvKLNmfERcBMcJpwb1nDOP2Mj30QggO344vwEeJk6zmOX02YmG8evmGsh4zG-xvzgAgca0AzmgB9Cxie_ROBW0BrstPlAxpMpPKyBeVeSxXMTaZCvGeHMkHuQnoq8G7CKSXZxIS9_jEkVAk-brwMPkOkZvmcIKXwvVm8rl7DTuCqkFNZEd9bF0q62NVhH7uTiXqr6xPtf3Na1P1kTNQ7TbMPm2lqRngQe4V782bb6wdTOb_kV1zkhxM6VcusG-pFqTO7m0I4h9td5_PM6TMyq0Ni8MP0dMu8nFx_aFDKn-hM4ohE4_74dx2m00]--></g></svg>