<svg xmlns="http://www.w3.org/2000/svg" xmlns:xlink="http://www.w3.org/1999/xlink" contentStyleType="text/css" height="569px" preserveAspectRatio="none" style="width:511px;height:569px;background:#FFFFFF;" version="1.1" viewBox="0 0 511 569" width="511px" zoomAndPan="magnify"><defs/><g><line style="stroke:#181818;stroke-width:0.5;stroke-dasharray:5.0,5.0;" x1="24" x2="24" y1="81.2969" y2="488.1563"/><rect fill="#FFFFFF" height="364.7266" style="stroke:#181818;stroke-width:1.0;" width="10" x="19" y="123.4297"/><rect fill="#FFFFFF" height="307.4609" style="stroke:#181818;stroke-width:1.0;" width="10" x="24" y="180.6953"/><rect fill="#FFFFFF" height="119.5313" style="stroke:#181818;stroke-width:1.0;" width="10" x="29" y="368.625"/><line style="stroke:#181818;stroke-width:0.5;stroke-dasharray:5.0,5.0;" x1="272" x2="272" y1="81.2969" y2="488.1563"/><rect fill="#FFFFFF" height="364.7266" style="stroke:#181818;stroke-width:1.0;" width="10" x="267" y="123.4297"/><rect fill="#FFFFFF" height="221.0625" style="stroke:#181818;stroke-width:1.0;" width="10" x="272" y="267.0938"/><rect fill="#FFFFFF" height="18" style="stroke:#181818;stroke-width:1.0;" width="10" x="277" y="470.1563"/><text fill="#000000" font-family="sans-serif" font-size="14" lengthAdjust="spacing" textLength="32" x="5" y="77.9951">Alice</text><ellipse cx="24" cy="13.5" fill="#E2E2F0" rx="8" ry="8" style="stroke:#181818;stroke-width:0.5;"/><path d="M24,21.5 L24,48.5 M11,29.5 L37,29.5 M24,48.5 L11,63.5 M24,48.5 L37,63.5 " fill="none" style="stroke:#181818;stroke-width:0.5;"/><text fill="#000000" font-family="sans-serif" font-size="14" lengthAdjust="spacing" textLength="28" x="255" y="77.9951">Bob</text><ellipse cx="272" cy="13.5" fill="#E2E2F0" rx="8" ry="8" style="stroke:#181818;stroke-width:0.5;"/><path d="M272,21.5 L272,48.5 M259,29.5 L285,29.5 M272,48.5 L259,63.5 M272,48.5 L285,63.5 " fill="none" style="stroke:#181818;stroke-width:0.5;"/><text fill="#000000" font-family="sans-serif" font-size="14" lengthAdjust="spacing" textLength="32" x="5" y="561.1514">Alice</text><ellipse cx="24" cy="496.6563" fill="#E2E2F0" rx="8" ry="8" style="stroke:#181818;stroke-width:0.5;"/><path d="M24,504.6563 L24,531.6563 M11,512.6563 L37,512.6563 M24,531.6563 L11,546.6563 M24,531.6563 L37,546.6563 " fill="none" style="stroke:#181818;stroke-width:0.5;"/><text fill="#000000" font-family="sans-serif" font-size="14" lengthAdjust="spacing" textLength="28" x="255" y="561.1514">Bob</text><ellipse cx="272" cy="496.6563" fill="#E2E2F0" rx="8" ry="8" style="stroke:#181818;stroke-width:0.5;"/><path d="M272,504.6563 L272,531.6563 M259,512.6563 L285,512.6563 M272,531.6563 L259,546.6563 M272,531.6563 L285,546.6563 " fill="none" style="stroke:#181818;stroke-width:0.5;"/><line style="stroke:#181818;stroke-width:1.0;" x1="24" x2="71" y1="110.4297" y2="110.4297"/><line style="stroke:#181818;stroke-width:1.0;" x1="71" x2="71" y1="110.4297" y2="123.4297"/><line style="stroke:#181818;stroke-width:1.0;" x1="30" x2="71" y1="123.4297" y2="123.4297"/><polygon fill="#181818" points="40,119.4297,30,123.4297,40,127.4297,36,123.4297" style="stroke:#181818;stroke-width:1.0;"/><text fill="#000000" font-family="sans-serif" font-size="13" lengthAdjust="spacing" textLength="188" x="36" y="105.3638">Generates long-term key pair</text><line style="stroke:#181818;stroke-width:1.0;" x1="272" x2="319" y1="110.4297" y2="110.4297"/><line style="stroke:#181818;stroke-width:1.0;" x1="319" x2="319" y1="110.4297" y2="123.4297"/><line style="stroke:#181818;stroke-width:1.0;" x1="278" x2="319" y1="123.4297" y2="123.4297"/><polygon fill="#181818" points="288,119.4297,278,123.4297,288,127.4297,284,123.4297" style="stroke:#181818;stroke-width:1.0;"/><text fill="#000000" font-family="sans-serif" font-size="13" lengthAdjust="spacing" textLength="188" x="284" y="105.3638">Generates long-term key pair</text><line style="stroke:#181818;stroke-width:1.0;" x1="29" x2="76" y1="167.6953" y2="167.6953"/><line style="stroke:#181818;stroke-width:1.0;" x1="76" x2="76" y1="167.6953" y2="180.6953"/><line style="stroke:#181818;stroke-width:1.0;" x1="35" x2="76" y1="180.6953" y2="180.6953"/><polygon fill="#181818" points="45,176.6953,35,180.6953,45,184.6953,41,180.6953" style="stroke:#181818;stroke-width:1.0;"/><text fill="#000000" font-family="sans-serif" font-size="13" lengthAdjust="spacing" textLength="151" x="41" y="147.4966">Initiate a key exchange,</text><text fill="#000000" font-family="sans-serif" font-size="13" lengthAdjust="spacing" textLength="219" x="41" y="162.6294">generating its ephemeral key pair.</text><polygon fill="#181818" points="255,205.8281,265,209.8281,255,213.8281,259,209.8281" style="stroke:#181818;stroke-width:1.0;"/><line style="stroke:#181818;stroke-width:1.0;" x1="34" x2="261" y1="209.8281" y2="209.8281"/><text fill="#000000" font-family="sans-serif" font-size="13" lengthAdjust="spacing" textLength="33" x="41" y="204.7622">Send</text><text fill="#000000" font-family="monospace" font-size="13" lengthAdjust="spacing" textLength="56" x="78" y="204.7622">packet1</text><line style="stroke:#181818;stroke-width:1.0;" x1="277" x2="324" y1="254.0938" y2="254.0938"/><line style="stroke:#181818;stroke-width:1.0;" x1="324" x2="324" y1="254.0938" y2="267.0938"/><line style="stroke:#181818;stroke-width:1.0;" x1="283" x2="324" y1="267.0938" y2="267.0938"/><polygon fill="#181818" points="293,263.0938,283,267.0938,293,271.0938,289,267.0938" style="stroke:#181818;stroke-width:1.0;"/><text fill="#000000" font-family="sans-serif" font-size="13" lengthAdjust="spacing" textLength="65" x="289" y="233.895">Processes</text><text fill="#000000" font-family="monospace" font-size="13" lengthAdjust="spacing" textLength="56" x="358" y="233.895">packet1</text><text fill="#000000" font-family="sans-serif" font-size="13" lengthAdjust="spacing" textLength="68" x="418" y="233.895">from Alice,</text><text fill="#000000" font-family="sans-serif" font-size="13" lengthAdjust="spacing" textLength="215" x="289" y="249.0278">generating its ephemeral key pair</text><polygon fill="#181818" points="45,292.2266,35,296.2266,45,300.2266,41,296.2266" style="stroke:#181818;stroke-width:1.0;"/><line style="stroke:#181818;stroke-width:1.0;" x1="39" x2="271" y1="296.2266" y2="296.2266"/><text fill="#000000" font-family="sans-serif" font-size="13" lengthAdjust="spacing" textLength="33" x="51" y="291.1606">Send</text><text fill="#000000" font-family="monospace" font-size="13" lengthAdjust="spacing" textLength="56" x="88" y="291.1606">packet2</text><line style="stroke:#181818;stroke-width:1.0;" x1="34" x2="81" y1="355.625" y2="355.625"/><line style="stroke:#181818;stroke-width:1.0;" x1="81" x2="81" y1="355.625" y2="368.625"/><line style="stroke:#181818;stroke-width:1.0;" x1="40" x2="81" y1="368.625" y2="368.625"/><polygon fill="#181818" points="50,364.625,40,368.625,50,372.625,46,368.625" style="stroke:#181818;stroke-width:1.0;"/><text fill="#000000" font-family="sans-serif" font-size="13" lengthAdjust="spacing" textLength="65" x="46" y="320.2935">Processes</text><text fill="#000000" font-family="monospace" font-size="13" lengthAdjust="spacing" textLength="56" x="115" y="320.2935">packet2</text><text fill="#000000" font-family="sans-serif" font-size="13" lengthAdjust="spacing" textLength="63" x="175" y="320.2935">from Bob,</text><text fill="#000000" font-family="sans-serif" font-size="13" lengthAdjust="spacing" textLength="186" x="46" y="335.4263">and computes its copy of the</text><text fill="#000000" font-family="sans-serif" font-size="13" lengthAdjust="spacing" textLength="81" x="46" y="350.5591">session keys</text><polygon fill="#181818" points="260,393.7578,270,397.7578,260,401.7578,264,397.7578" style="stroke:#181818;stroke-width:1.0;"/><line style="stroke:#181818;stroke-width:1.0;" x1="39" x2="266" y1="397.7578" y2="397.7578"/><text fill="#000000" font-family="sans-serif" font-size="13" lengthAdjust="spacing" textLength="33" x="46" y="392.6919">Send</text><text fill="#000000" font-family="monospace" font-size="13" lengthAdjust="spacing" textLength="56" x="83" y="392.6919">packet3</text><line style="stroke:#181818;stroke-width:1.0;" x1="282" x2="329" y1="457.1563" y2="457.1563"/><line style="stroke:#181818;stroke-width:1.0;" x1="329" x2="329" y1="457.1563" y2="470.1563"/><line style="stroke:#181818;stroke-width:1.0;" x1="288" x2="329" y1="470.1563" y2="470.1563"/><polygon fill="#181818" points="298,466.1563,288,470.1563,298,474.1563,294,470.1563" style="stroke:#181818;stroke-width:1.0;"/><text fill="#000000" font-family="sans-serif" font-size="13" lengthAdjust="spacing" textLength="65" x="294" y="421.8247">Processes</text><text fill="#000000" font-family="monospace" font-size="13" lengthAdjust="spacing" textLength="56" x="363" y="421.8247">packet3</text><text fill="#000000" font-family="sans-serif" font-size="13" lengthAdjust="spacing" textLength="68" x="423" y="421.8247">from Alice,</text><text fill="#000000" font-family="sans-serif" font-size="13" lengthAdjust="spacing" textLength="186" x="294" y="436.9575">and computes its copy of the</text><text fill="#000000" font-family="sans-serif" font-size="13" lengthAdjust="spacing" textLength="81" x="294" y="452.0903">session keys</text><!--SRC=[dP0_Ry8m4CNtV8fh1gPIYR0n8BLBrQqIAyjXZiGYzbdsKJNzz3s7W21KAktYV-VtU-_k8KIi7O8GVu740nLeX2CyjzQSpY-yAVexJ9V7mW9UoLD4eGGj-teg51tigOE0DcQP_T3YG9baGjRgTg_o9yytRyNc8lO2-ZGD-feUrxhqJEjhi9A0GaDE7zep-6cSwSpkCwt8Rw4i0vezoQmiYyl0xv4DfQI1Btx0Bh8xikxnlsvie0zjNPbNQZxk-pP0TGgW9BL71HXsuP2dcWCO3Xtm3gIXjLTXiknpblI7CSn_7SDyF8R_v53sDm00]--></g></svg>